<svg width="148" height="148" viewBox="0 0 148 148" fill="none" xmlns="http://www.w3.org/2000/svg">
<rect width="148" height="148" rx="14" fill="currentColor"/>
<path d="M59.9933 42.5367C59.9987 40.7372 59.6441 38.9549 58.9505 37.2945C58.2569 35.6341 57.2382 34.1291 55.9545 32.8681C54.6707 31.6072 53.1478 30.6156 51.4753 29.9518C49.8027 29.2881 48.0143 28.9654 46.2152 29.0029C44.4162 29.0404 42.6428 29.4373 40.9993 30.1702C39.3559 30.9031 37.8756 31.9572 36.6455 33.2706C35.4154 34.584 34.4604 36.1301 33.8366 37.8179C33.2127 39.5058 32.9327 41.3014 33.013 43.0991C30.3685 43.779 27.9134 45.0518 25.8337 46.8211C23.7539 48.5904 22.1041 50.8097 21.0091 53.311C19.914 55.8124 19.4025 58.5301 19.5133 61.2583C19.6242 63.9866 20.3543 66.6539 21.6486 69.0581C19.3729 70.9069 17.5835 73.2837 16.4358 75.9817C15.2882 78.6798 14.8172 81.6174 15.0638 84.539C15.3103 87.4606 16.267 90.2778 17.8506 92.7453C19.4342 95.2129 21.5967 97.2561 24.15 98.6974C23.8347 101.137 24.0229 103.615 24.7029 105.979C25.3829 108.343 26.5403 110.542 28.1037 112.442C29.667 114.341 31.6031 115.899 33.7923 117.021C35.9816 118.142 38.3775 118.803 40.8321 118.962C43.2868 119.122 45.748 118.776 48.0638 117.947C50.3796 117.118 52.5009 115.822 54.2966 114.141C56.0922 112.46 57.5242 110.429 58.504 108.172C59.4838 105.916 59.9907 103.483 59.9933 101.023V42.5367Z" stroke="#FAF7F0" stroke-width="5" stroke-linecap="round" stroke-linejoin="round"/>
<path d="M46.4964 78.5285C50.2736 77.1997 53.5719 74.7808 55.9743 71.5776C58.3767 68.3743 59.7754 64.5307 59.9933 60.5326" stroke="#FAF7F0" stroke-width="5" stroke-linecap="round" stroke-linejoin="round"/>
<path d="M33.013 43.0991C33.102 45.2754 33.7163 47.3978 34.8036 49.2851" stroke="#FAF7F0" stroke-width="5" stroke-linecap="round" stroke-linejoin="round"/>
<path d="M21.6486 69.0626C22.4716 68.3923 23.3524 67.7961 24.2805 67.281" stroke="#FAF7F0" stroke-width="5" stroke-linecap="round" stroke-linejoin="round"/>
<path d="M32.9995 101.023C29.899 101.025 26.8506 100.225 24.1501 98.7019" stroke="#FAF7F0" stroke-width="5" stroke-linecap="round" stroke-linejoin="round"/>
<path d="M59.9933 78.5285H77.9892" stroke="#FAF7F0" stroke-width="5" stroke-linecap="round" stroke-linejoin="round"/>
<path d="M59.9933 101.023H86.9872C89.3736 101.023 91.6622 101.971 93.3497 103.659C95.0371 105.346 95.9851 107.635 95.9851 110.021V114.52" stroke="#FAF7F0" stroke-width="5" stroke-linecap="round" stroke-linejoin="round"/>
<path d="M59.9933 56.0336H95.9851" stroke="#FAF7F0" stroke-width="5" stroke-linecap="round" stroke-linejoin="round"/>
<path d="M77.9892 56.0336V42.5367C77.9892 40.1503 78.9372 37.8616 80.6247 36.1742C82.3121 34.4867 84.6008 33.5387 86.9872 33.5387" stroke="#FAF7F0" stroke-width="5" stroke-linecap="round" stroke-linejoin="round"/>
<path d="M77.9892 80.7779C79.2316 80.7779 80.2387 79.7708 80.2387 78.5285C80.2387 77.2861 79.2316 76.279 77.9892 76.279C76.7469 76.279 75.7397 77.2861 75.7397 78.5285C75.7397 79.7708 76.7469 80.7779 77.9892 80.7779Z" stroke="#FAF7F0" stroke-width="5" stroke-linecap="round" stroke-linejoin="round"/>
<path d="M86.9872 35.7882C88.2295 35.7882 89.2366 34.7811 89.2366 33.5387C89.2366 32.2964 88.2295 31.2893 86.9872 31.2893C85.7448 31.2893 84.7377 32.2964 84.7377 33.5387C84.7377 34.7811 85.7448 35.7882 86.9872 35.7882Z" stroke="#FAF7F0" stroke-width="5" stroke-linecap="round" stroke-linejoin="round"/>
<path d="M95.9851 116.77C97.2275 116.77 98.2346 115.763 98.2346 114.52C98.2346 113.278 97.2275 112.271 95.9851 112.271C94.7428 112.271 93.7357 113.278 93.7357 114.52C93.7357 115.763 94.7428 116.77 95.9851 116.77Z" stroke="#FAF7F0" stroke-width="5" stroke-linecap="round" stroke-linejoin="round"/>
<path d="M95.9851 58.2831C97.2275 58.2831 98.2346 57.276 98.2346 56.0336C98.2346 54.7912 97.2275 53.7841 95.9851 53.7841C94.7428 53.7841 93.7357 54.7912 93.7357 56.0336C93.7357 57.276 94.7428 58.2831 95.9851 58.2831Z" stroke="#FAF7F0" stroke-width="5" stroke-linecap="round" stroke-linejoin="round"/>
</svg>
