<svg viewBox="0 0 801 148" fill="none" xmlns="http://www.w3.org/2000/svg">
<path d="M200.1 111V41.4H215.8V111H200.1ZM178 54.1V40.4H237.9V54.1H178ZM253.946 112C249.479 112 245.479 110.9 241.946 108.7C238.479 106.5 235.713 103.5 233.646 99.7C231.646 95.9 230.646 91.5667 230.646 86.7C230.646 81.8333 231.646 77.5 233.646 73.7C235.713 69.9 238.479 66.9 241.946 64.7C245.479 62.5 249.479 61.4 253.946 61.4C257.213 61.4 260.146 62.0333 262.746 63.3C265.413 64.5667 267.579 66.3333 269.246 68.6C270.913 70.8 271.846 73.3333 272.046 76.2V97.2C271.846 100.067 270.913 102.633 269.246 104.9C267.646 107.1 265.513 108.833 262.846 110.1C260.179 111.367 257.213 112 253.946 112ZM257.046 98.2C260.313 98.2 262.946 97.1333 264.946 95C266.946 92.8 267.946 90.0333 267.946 86.7C267.946 84.4333 267.479 82.4333 266.546 80.7C265.679 78.9667 264.413 77.6333 262.746 76.7C261.146 75.7 259.279 75.2 257.146 75.2C255.013 75.2 253.113 75.7 251.446 76.7C249.846 77.6333 248.546 78.9667 247.546 80.7C246.613 82.4333 246.146 84.4333 246.146 86.7C246.146 88.9 246.613 90.8667 247.546 92.6C248.479 94.3333 249.779 95.7 251.446 96.7C253.113 97.7 254.979 98.2 257.046 98.2ZM267.346 111V97.9L269.646 86.1L267.346 74.3V62.4H282.346V111H267.346ZM310.819 112.2C307.952 112.2 305.119 111.833 302.319 111.1C299.585 110.367 297.019 109.333 294.619 108C292.285 106.6 290.285 105 288.619 103.2L297.319 94.4C298.919 96.1333 300.819 97.5 303.019 98.5C305.219 99.4333 307.619 99.9 310.219 99.9C312.019 99.9 313.385 99.6333 314.319 99.1C315.319 98.5667 315.819 97.8333 315.819 96.9C315.819 95.7 315.219 94.8 314.019 94.2C312.885 93.5333 311.419 92.9667 309.619 92.5C307.819 91.9667 305.919 91.4 303.919 90.8C301.919 90.2 300.019 89.3667 298.219 88.3C296.419 87.2333 294.952 85.7667 293.819 83.9C292.685 81.9667 292.119 79.5333 292.119 76.6C292.119 73.4667 292.919 70.7667 294.519 68.5C296.119 66.1667 298.385 64.3333 301.319 63C304.252 61.6667 307.685 61 311.619 61C315.752 61 319.552 61.7333 323.019 63.2C326.552 64.6 329.419 66.7 331.619 69.5L322.919 78.3C321.385 76.5 319.652 75.2333 317.719 74.5C315.852 73.7667 314.019 73.4 312.219 73.4C310.485 73.4 309.185 73.6667 308.319 74.2C307.452 74.6667 307.019 75.3667 307.019 76.3C307.019 77.3 307.585 78.1 308.719 78.7C309.852 79.3 311.319 79.8333 313.119 80.3C314.919 80.7667 316.819 81.3333 318.819 82C320.819 82.6667 322.719 83.5667 324.519 84.7C326.319 85.8333 327.785 87.3667 328.919 89.3C330.052 91.1667 330.619 93.6333 330.619 96.7C330.619 101.433 328.819 105.2 325.219 108C321.685 110.8 316.885 112.2 310.819 112.2ZM370.02 111L353.02 85.8L369.92 62.4H387.02L366.62 88.7L367.12 82.4L388.02 111H370.02ZM338.92 111V38.4H354.22V111H338.92ZM428.409 112.1C423.143 112.1 418.243 111.2 413.709 109.4C409.243 107.533 405.309 104.933 401.909 101.6C398.576 98.2667 395.976 94.4 394.109 90C392.243 85.5333 391.309 80.7333 391.309 75.6C391.309 70.4667 392.243 65.7 394.109 61.3C395.976 56.8333 398.576 52.9667 401.909 49.7C405.243 46.4333 409.143 43.9 413.609 42.1C418.143 40.2333 423.043 39.3 428.309 39.3C433.909 39.3 438.876 40.2 443.209 42C447.609 43.8 451.443 46.2667 454.709 49.4L444.209 60C442.343 58 440.076 56.4333 437.409 55.3C434.809 54.1667 431.776 53.6 428.309 53.6C425.243 53.6 422.409 54.1333 419.809 55.2C417.276 56.2 415.076 57.6667 413.209 59.6C411.409 61.5333 409.976 63.8667 408.909 66.6C407.909 69.3333 407.409 72.3333 407.409 75.6C407.409 78.9333 407.909 81.9667 408.909 84.7C409.976 87.4333 411.409 89.7667 413.209 91.7C415.076 93.6333 417.276 95.1333 419.809 96.2C422.409 97.2667 425.243 97.8 428.309 97.8C431.909 97.8 435.043 97.2333 437.709 96.1C440.376 94.9667 442.676 93.4 444.609 91.4L455.209 102C451.809 105.133 447.909 107.6 443.509 109.4C439.176 111.2 434.143 112.1 428.409 112.1ZM484.683 112.1C479.683 112.1 475.149 111 471.083 108.8C467.083 106.533 463.916 103.467 461.583 99.6C459.249 95.7333 458.083 91.4 458.083 86.6C458.083 81.8 459.249 77.5 461.583 73.7C463.916 69.9 467.083 66.9 471.083 64.7C475.083 62.4333 479.616 61.3 484.683 61.3C489.749 61.3 494.283 62.4 498.283 64.6C502.283 66.8 505.449 69.8333 507.783 73.7C510.116 77.5 511.283 81.8 511.283 86.6C511.283 91.4 510.116 95.7333 507.783 99.6C505.449 103.467 502.283 106.533 498.283 108.8C494.283 111 489.749 112.1 484.683 112.1ZM484.683 98.2C486.883 98.2 488.816 97.7333 490.483 96.8C492.149 95.8 493.416 94.4333 494.283 92.7C495.216 90.9 495.683 88.8667 495.683 86.6C495.683 84.3333 495.216 82.3667 494.283 80.7C493.349 78.9667 492.049 77.6333 490.383 76.7C488.783 75.7 486.883 75.2 484.683 75.2C482.549 75.2 480.649 75.7 478.983 76.7C477.316 77.6333 476.016 78.9667 475.083 80.7C474.149 82.4333 473.683 84.4333 473.683 86.7C473.683 88.9 474.149 90.9 475.083 92.7C476.016 94.4333 477.316 95.8 478.983 96.8C480.649 97.7333 482.549 98.2 484.683 98.2ZM518.9 111V62.4H534.2V111H518.9ZM534.2 84.3L527.8 79.3C529.067 73.6333 531.2 69.2333 534.2 66.1C537.2 62.9667 541.367 61.4 546.7 61.4C549.033 61.4 551.067 61.7667 552.8 62.5C554.6 63.1667 556.167 64.2333 557.5 65.7L548.4 77.2C547.733 76.4667 546.9 75.9 545.9 75.5C544.9 75.1 543.767 74.9 542.5 74.9C539.967 74.9 537.933 75.7 536.4 77.3C534.933 78.8333 534.2 81.1667 534.2 84.3ZM568.964 111V42.3H584.264V111H568.964ZM557.964 75.4V62.4H595.264V75.4H557.964ZM625.029 112.1C619.762 112.1 615.062 111.033 610.929 108.9C606.862 106.7 603.662 103.667 601.329 99.8C598.996 95.9333 597.829 91.5667 597.829 86.7C597.829 81.8333 598.962 77.5 601.229 73.7C603.562 69.8333 606.696 66.8 610.629 64.6C614.562 62.4 618.996 61.3 623.929 61.3C628.729 61.3 632.962 62.3333 636.629 64.4C640.296 66.4667 643.162 69.3333 645.229 73C647.362 76.6667 648.429 80.8667 648.429 85.6C648.429 86.4667 648.362 87.4 648.229 88.4C648.162 89.3333 647.996 90.4333 647.729 91.7L605.829 91.8V81.3L641.229 81.2L634.629 85.6C634.562 82.8 634.129 80.5 633.329 78.7C632.529 76.8333 631.329 75.4333 629.729 74.5C628.196 73.5 626.296 73 624.029 73C621.629 73 619.529 73.5667 617.729 74.7C615.996 75.7667 614.629 77.3 613.629 79.3C612.696 81.3 612.229 83.7333 612.229 86.6C612.229 89.4667 612.729 91.9333 613.729 94C614.796 96 616.262 97.5667 618.129 98.7C620.062 99.7667 622.329 100.3 624.929 100.3C627.329 100.3 629.496 99.9 631.429 99.1C633.362 98.2333 635.062 96.9667 636.529 95.3L644.929 103.7C642.529 106.5 639.629 108.6 636.229 110C632.829 111.4 629.096 112.1 625.029 112.1ZM684.645 111L672.945 92.1L669.645 90L650.545 62.4H668.445L679.345 80.1L682.545 82.1L702.345 111H684.645ZM649.645 111L669.545 82.7L678.245 92.5L666.345 111H649.645ZM682.445 89.9L673.745 80.1L684.745 62.4H701.345L682.445 89.9Z" fill="#FAF7F0"/>
<rect width="148" height="148" rx="14" fill="#FAF7F0"/>
<path d="M59.9933 42.5367C59.9987 40.7372 59.6441 38.9549 58.9505 37.2945C58.2569 35.6341 57.2382 34.1291 55.9545 32.8681C54.6707 31.6072 53.1478 30.6156 51.4753 29.9518C49.8027 29.2881 48.0143 28.9654 46.2152 29.0029C44.4162 29.0404 42.6428 29.4373 40.9993 30.1702C39.3559 30.9031 37.8756 31.9572 36.6455 33.2706C35.4154 34.584 34.4604 36.1301 33.8366 37.8179C33.2127 39.5058 32.9327 41.3014 33.013 43.0991C30.3685 43.779 27.9134 45.0518 25.8337 46.8211C23.7539 48.5904 22.1041 50.8097 21.0091 53.311C19.914 55.8124 19.4025 58.5301 19.5133 61.2583C19.6242 63.9866 20.3543 66.6539 21.6486 69.0581C19.3729 70.9069 17.5835 73.2837 16.4358 75.9817C15.2882 78.6798 14.8172 81.6174 15.0638 84.539C15.3103 87.4606 16.267 90.2778 17.8506 92.7453C19.4342 95.2129 21.5967 97.2561 24.15 98.6974C23.8347 101.137 24.0229 103.615 24.7029 105.979C25.3829 108.343 26.5403 110.542 28.1037 112.442C29.667 114.341 31.6031 115.899 33.7923 117.021C35.9816 118.142 38.3775 118.803 40.8321 118.962C43.2868 119.122 45.748 118.776 48.0638 117.947C50.3796 117.118 52.5009 115.822 54.2966 114.141C56.0922 112.46 57.5242 110.429 58.504 108.172C59.4838 105.916 59.9907 103.483 59.9933 101.023V42.5367Z" stroke="#18181B" stroke-width="5" stroke-linecap="round" stroke-linejoin="round"/>
<path d="M46.4964 78.5285C50.2736 77.1997 53.5719 74.7808 55.9743 71.5776C58.3767 68.3743 59.7754 64.5307 59.9933 60.5326" stroke="#18181B" stroke-width="5" stroke-linecap="round" stroke-linejoin="round"/>
<path d="M33.013 43.0991C33.102 45.2754 33.7163 47.3978 34.8036 49.2851" stroke="#18181B" stroke-width="5" stroke-linecap="round" stroke-linejoin="round"/>
<path d="M21.6486 69.0626C22.4716 68.3923 23.3524 67.7961 24.2805 67.281" stroke="#18181B" stroke-width="5" stroke-linecap="round" stroke-linejoin="round"/>
<path d="M32.9995 101.023C29.899 101.025 26.8506 100.225 24.1501 98.7019" stroke="#18181B" stroke-width="5" stroke-linecap="round" stroke-linejoin="round"/>
<path d="M59.9933 78.5285H77.9892" stroke="#18181B" stroke-width="5" stroke-linecap="round" stroke-linejoin="round"/>
<path d="M59.9933 101.023H86.9872C89.3736 101.023 91.6622 101.971 93.3497 103.659C95.0371 105.346 95.9851 107.635 95.9851 110.021V114.52" stroke="#18181B" stroke-width="5" stroke-linecap="round" stroke-linejoin="round"/>
<path d="M59.9933 56.0336H95.9851" stroke="#18181B" stroke-width="5" stroke-linecap="round" stroke-linejoin="round"/>
<path d="M77.9892 56.0336V42.5367C77.9892 40.1503 78.9372 37.8616 80.6247 36.1742C82.3121 34.4867 84.6008 33.5387 86.9872 33.5387" stroke="#18181B" stroke-width="5" stroke-linecap="round" stroke-linejoin="round"/>
<path d="M77.9892 80.7779C79.2316 80.7779 80.2387 79.7708 80.2387 78.5285C80.2387 77.2861 79.2316 76.279 77.9892 76.279C76.7469 76.279 75.7397 77.2861 75.7397 78.5285C75.7397 79.7708 76.7469 80.7779 77.9892 80.7779Z" stroke="#18181B" stroke-width="5" stroke-linecap="round" stroke-linejoin="round"/>
<path d="M86.9872 35.7882C88.2295 35.7882 89.2366 34.7811 89.2366 33.5387C89.2366 32.2964 88.2295 31.2893 86.9872 31.2893C85.7448 31.2893 84.7377 32.2964 84.7377 33.5387C84.7377 34.7811 85.7448 35.7882 86.9872 35.7882Z" stroke="#18181B" stroke-width="5" stroke-linecap="round" stroke-linejoin="round"/>
<path d="M95.9851 116.77C97.2275 116.77 98.2346 115.763 98.2346 114.52C98.2346 113.278 97.2275 112.271 95.9851 112.271C94.7428 112.271 93.7357 113.278 93.7357 114.52C93.7357 115.763 94.7428 116.77 95.9851 116.77Z" stroke="#18181B" stroke-width="5" stroke-linecap="round" stroke-linejoin="round"/>
<path d="M95.9851 58.2831C97.2275 58.2831 98.2346 57.276 98.2346 56.0336C98.2346 54.7912 97.2275 53.7841 95.9851 53.7841C94.7428 53.7841 93.7357 54.7912 93.7357 56.0336C93.7357 57.276 94.7428 58.2831 95.9851 58.2831Z" stroke="#18181B" stroke-width="5" stroke-linecap="round" stroke-linejoin="round"/>
</svg>
